<svg width="36" height="31" viewBox="0 0 36 31" fill="none" xmlns="http://www.w3.org/2000/svg">
<rect width="36" height="31" rx="15.5" transform="matrix(-1 0 0 1 36 0)" fill="#E6DBD1" fill-opacity="0.75"/>
<path d="M35.0607 13.9393C35.6464 14.5251 35.6464 15.4749 35.0607 16.0607L25.5147 25.6066C24.9289 26.1924 23.9792 26.1924 23.3934 25.6066C22.8076 25.0208 22.8076 24.0711 23.3934 23.4853L31.8787 15L23.3934 6.51472C22.8076 5.92893 22.8076 4.97918 23.3934 4.3934C23.9792 3.80761 24.9289 3.80761 25.5147 4.3934L35.0607 13.9393ZM2 13.5L34 13.5V16.5L2 16.5L2 13.5Z" fill="#090A09"/>
</svg>
